<?xml version="1.0" standalone="no"?>
<!DOCTYPE svg PUBLIC "-//W3C//DTD SVG 20010904//EN"
 "http://www.w3.org/TR/2001/REC-SVG-20010904/DTD/svg10.dtd">
<svg version="1.0" xmlns="http://www.w3.org/2000/svg"
 width="1000.000000pt" height="1000.000000pt" viewBox="0 0 1000.000000 1000.000000"
 preserveAspectRatio="xMidYMid meet">
<metadata>
Created by potrace 1.14, written by Peter Selinger 2001-2017
</metadata>
<g transform="translate(0.000000,1000.000000) scale(0.100000,-0.100000)"
fill="#000000" stroke="none">
<path d="M823 8800 l0 -570 544 0 543 0 0 570 0 570 -544 0 -543 0 0 -570z"/>
<path d="M5298 7905 c-2 -1 -33 -5 -70 -9 -36 -3 -72 -8 -80 -11 -7 -2 -24 -6
-38 -9 -196 -34 -425 -141 -617 -286 l-43 -32 0 126 c0 69 -3 127 -7 127 -5 1
-249 2 -544 3 l-535 1 0 -1930 c0 -2047 -2 -1950 42 -1785 15 56 97 318 139
445 91 272 229 632 310 810 14 30 25 56 25 59 0 25 241 494 357 696 49 85 186
285 236 345 153 183 358 355 507 424 226 105 496 91 613 -31 67 -70 116 -240
133 -458 1 -14 2 -689 3 -1500 l1 -1475 540 0 c533 0 540 0 540 20 0 11 0 688
0 1505 l0 1485 52 60 c86 99 218 223 303 285 184 133 346 188 528 178 266 -15
360 -145 394 -543 4 -44 7 -735 7 -1535 l1 -1455 520 2 c286 1 530 2 541 2
l21 1 -2 1548 c-2 851 -5 1561 -8 1577 -3 17 -10 66 -16 111 -6 44 -14 91 -16
105 -3 13 -7 35 -10 49 -12 67 -49 194 -77 270 -70 185 -164 335 -290 462
-240 242 -576 364 -993 362 -198 -1 -336 -27 -534 -100 -197 -74 -342 -171
-555 -375 -54 -52 -101 -95 -105 -96 -3 -1 -22 23 -41 53 -81 129 -240 272
-393 354 -124 67 -310 127 -447 145 -25 3 -63 8 -85 12 -38 5 -302 12 -307 8z"/>
<path d="M826 7801 c-7 -13 -2 -5452 5 -5531 59 -654 485 -1238 1095 -1499
108 -47 305 -107 381 -117 26 -3 66 -10 88 -14 22 -5 130 -9 240 -8 321 0 526
48 797 183 515 259 884 746 1004 1325 6 29 15 3730 9 3730 -3 0 -110 -161
-165 -249 -307 -494 -637 -1257 -847 -1961 -18 -63 -41 -137 -50 -165 -15 -44
-17 -119 -18 -615 0 -563 0 -565 -24 -635 -105 -317 -377 -518 -701 -518 -341
0 -622 220 -712 558 l-21 80 -1 2718 c-1 1818 -4 2718 -11 2719 -30 4 -1067 3
-1069 -1z"/>
</g>
</svg>
