<?xml version="1.0" standalone="no"?>
<!DOCTYPE svg PUBLIC "-//W3C//DTD SVG 20010904//EN"
 "http://www.w3.org/TR/2001/REC-SVG-20010904/DTD/svg10.dtd">
<svg version="1.0" xmlns="http://www.w3.org/2000/svg"
 width="142.000000pt" height="142.000000pt" viewBox="0 0 142.000000 142.000000"
 preserveAspectRatio="xMidYMid meet">
<metadata>
Created by potrace 1.14, written by Peter Selinger 2001-2017
</metadata>
<g transform="translate(0.000000,142.000000) scale(0.100000,-0.100000)"
fill="#000000" stroke="none">
<path d="M103 1382 l-33 -3 0 -87 0 -87 80 -1 c44 0 81 3 81 6 1 3 2 42 3 88
l2 82 -31 1 c-16 0 -39 1 -50 2 -11 1 -35 1 -52 -1z"/>
<path d="M698 1144 c-26 -8 -50 -19 -53 -24 -10 -16 -25 -11 -25 8 0 15 -10
17 -76 15 -41 0 -79 -4 -82 -8 -4 -4 -7 -132 -7 -285 0 -154 3 -276 6 -272 4
4 17 39 29 77 30 94 104 242 141 283 63 69 129 90 165 51 17 -19 19 -41 21
-263 1 -132 2 -246 2 -251 1 -11 139 -14 156 -3 6 4 10 91 9 232 l-1 226 30
30 c36 35 88 54 122 46 37 -9 42 -47 44 -300 1 -126 3 -232 6 -235 3 -5 134
-7 155 -2 9 2 4 481 -4 521 -22 97 -94 160 -189 165 -62 3 -116 -15 -168 -56
-33 -26 -40 -28 -45 -15 -10 27 -87 66 -140 70 -28 3 -69 -1 -96 -10z"/>
<path d="M103 1142 l-33 -3 0 -438 c0 -486 1 -493 66 -569 104 -121 288 -128
401 -14 78 78 78 79 81 422 3 346 7 337 -73 167 -71 -152 -87 -210 -89 -322
-2 -55 -8 -110 -15 -123 -27 -51 -100 -71 -150 -41 -59 36 -59 35 -59 492 0
230 -2 421 -5 424 -7 6 -79 9 -124 5z"/>
</g>
</svg>
